HIERARCHY
ROOT Hips
{
	OFFSET -3.958830 18.904000 13.208200
	CHANNELS 6 Xposition Yposition Zposition Zrotation Yrotation Xrotation 
	JOINT LHipJoint
	{
		OFFSET 0.000000 0.000000 0.000000
		CHANNELS 3 Zrotation Yrotation Xrotation
		JOINT LeftUpLeg
		{
			OFFSET 1.800000 -1.400000 0.085000
			CHANNELS 3 Zrotation Yrotation Xrotation
			JOINT LeftLeg
			{
				OFFSET 2.215000 -6.000000 0.000000
				CHANNELS 3 Zrotation Yrotation Xrotation
				JOINT LeftFoot
				{
					OFFSET 2.500000 -6.900000 0.000000
					CHANNELS 3 Zrotation Yrotation Xrotation
					JOINT LeftToeBase
					{
						OFFSET 0.200000 -0.500000 1.950000
						CHANNELS 3 Zrotation Yrotation Xrotation
						End Site
						{
							OFFSET 0.000000 0.000000 0.000000
						}
					}
				}
			}
		}
	}
	JOINT RHipJoint
	{
		OFFSET 0.000000 0.000000 0.000000
		CHANNELS 3 Zrotation Yrotation Xrotation
		JOINT RightUpLeg
		{
			OFFSET -1.800000 -1.400000 0.085000
			CHANNELS 3 Zrotation Yrotation Xrotation
			JOINT RightLeg
			{
				OFFSET -2.215000 -6.000000 0.000000
				CHANNELS 3 Zrotation Yrotation Xrotation
				JOINT RightFoot
				{
					OFFSET -2.500000 -6.900000 0.000000
					CHANNELS 3 Zrotation Yrotation Xrotation
					JOINT RightToeBase
					{
						OFFSET -0.200000 -0.500000 1.950000
						CHANNELS 3 Zrotation Yrotation Xrotation
						End Site
						{
							OFFSET 0.000000 0.000000 0.000000
						}
					}
				}
			}
		}
	}
	JOINT LowerBack
	{
		OFFSET 0.000000 0.000000 0.000000
		CHANNELS 3 Zrotation Yrotation Xrotation
		JOINT Spine
		{
			OFFSET -0.087000 1.940000 -0.288900
			CHANNELS 3 Zrotation Yrotation Xrotation
			JOINT Spine1
			{
				OFFSET 0.000000 1.950000 0.060000
				CHANNELS 3 Zrotation Yrotation Xrotation
				JOINT Neck
				{
					OFFSET 0.000000 0.000000 0.000000
					CHANNELS 3 Zrotation Yrotation Xrotation
					JOINT Neck1
					{
						OFFSET 0.000000 1.600000 0.340000
						CHANNELS 3 Zrotation Yrotation Xrotation
						JOINT Head
						{
							OFFSET 0.000000 1.667000 -0.240000
							CHANNELS 3 Zrotation Yrotation Xrotation
							End Site
							{
								OFFSET 0.000000 0.000000 0.000000
							}
						}
					}
				}
				JOINT LeftShoulder
				{
					OFFSET 0.000000 0.000000 0.000000
					CHANNELS 3 Zrotation Yrotation Xrotation
					JOINT LeftArm
					{
						OFFSET 2.700000 1.550000 -0.730000
						CHANNELS 3 Zrotation Yrotation Xrotation
						JOINT LeftForeArm
						{
							OFFSET 5.450000 0.000000 0.000000
							CHANNELS 3 Zrotation Yrotation Xrotation
							JOINT LeftHand
							{
								OFFSET 3.450000 0.000000 0.000000
								CHANNELS 3 Zrotation Yrotation Xrotation
								JOINT LeftHandIndex1
								{
									OFFSET 0.750000 0.000000 0.000000
									CHANNELS 3 Zrotation Yrotation Xrotation
									End Site
									{
										OFFSET 0.000000 0.000000 0.000000
									}
								}
							}
						}
					}
				}
				JOINT RightShoulder
				{
					OFFSET 0.000000 0.000000 0.000000
					CHANNELS 3 Zrotation Yrotation Xrotation
					JOINT RightArm
					{
						OFFSET -2.700000 1.550000 -0.730000
						CHANNELS 3 Zrotation Yrotation Xrotation
						JOINT RightForeArm
						{
							OFFSET -5.450000 0.000000 0.000000
							CHANNELS 3 Zrotation Yrotation Xrotation
							JOINT RightHand
							{
								OFFSET -3.450000 0.000000 0.000000
								CHANNELS 3 Zrotation Yrotation Xrotation
								JOINT RightHandIndex1
								{
									OFFSET -0.750000 0.000000 0.000000
									CHANNELS 3 Zrotation Yrotation Xrotation
									End Site
									{
										OFFSET 0.000000 0.000000 0.000000
									}
								}
							}
						}
					}
				}
			}
		}
	}
}
MOTION
Frames: 13
Frame Time: 0.016667
0.560010 17.314550 -1.622900 -3.314600 -9.978834 10.782421 -15.393551 12.598948 3.406282 -6.434609 -2.277179 -12.460331 -5.969381 2.567442 -0.432452 -1.126046 4.544319 3.758293 0.220410 -0.529810 -0.113650 18.223433 -10.490030 2.789585 -2.784486 -0.441598 -0.569761 7.473202 -5.845456 4.279356 -0.941245 -4.918102 2.656364 -0.103130 1.642340 1.520670 -3.095814 -1.627288 -7.275653 3.441321 3.852755 4.896758 1.230877 3.101097 4.627057 2.217471 -0.654894 -8.896156 -1.477391 4.500635 25.622445 -6.234880 2.477200 -9.749670 -14.605314 -8.852003 2.276025 -7.577331 -5.644157 0.354639 11.085459 -26.844226 -3.220817 -4.640882 2.760852 1.035750 0.957400 0.128630 0.856860 11.069544 10.568383 5.822382 10.702292 7.289612 -4.181482 -14.983458 26.208907 -2.072471 1.437633 -1.403037 -0.491360 0.555130 0.368550 0.136530 
0.558670 17.316270 -1.618680 -3.411108 -10.092066 10.990387 -15.392946 12.593599 3.411570 -6.434093 -2.322908 -12.607873 -5.927758 2.539920 -0.537959 -1.129527 4.531684 3.762776 0.218220 -0.534070 -0.112000 18.223042 -10.495188 2.782746 -2.990051 -0.456667 -0.315383 7.435952 -5.876355 4.333814 -0.946460 -4.948328 2.647078 -0.105690 1.641920 1.520320 -3.095507 -1.622900 -7.274077 3.456220 3.876525 4.824484 1.275469 3.107179 4.655881 2.225640 -0.659019 -8.974477 -1.471377 4.505816 25.521033 -6.260600 2.504360 -9.756600 -14.599967 -8.974948 2.351732 -7.628550 -5.588122 0.341843 11.242765 -26.663583 -3.253699 -4.642352 2.757701 1.036450 0.957280 0.127660 0.854430 11.056140 10.698148 5.895686 10.720175 7.186147 -4.219318 -15.070390 26.250270 -2.097129 1.436759 -1.402831 -0.492380 0.554190 0.369760 0.134760 
0.557360 17.317610 -1.614010 -3.510127 -10.215769 11.211673 -15.392085 12.585991 3.416558 -6.430803 -2.369830 -12.753104 -5.887934 2.510235 -0.661367 -1.133255 4.521565 3.766746 0.215140 -0.539890 -0.111770 18.223264 -10.501073 2.774754 -3.217858 -0.469942 -0.039555 7.388401 -5.909154 4.389205 -0.951878 -4.983235 2.636021 -0.108540 1.643100 1.521440 -3.096646 -1.614505 -7.270158 3.472798 3.912352 4.724705 1.324272 3.122171 4.692488 2.232947 -0.661403 -9.048999 -1.459220 4.507306 25.397073 -6.303310 2.529710 -9.721400 -14.590013 -9.091970 2.422563 -7.674410 -5.542958 0.333165 11.401634 -26.489687 -3.287667 -4.645941 2.756319 1.036140 0.958790 0.125520 0.852330 11.040321 10.819610 5.969433 10.736299 7.065020 -4.259425 -15.175169 26.306306 -2.127137 1.434587 -1.404293 -0.493460 0.552620 0.372270 0.133130 
0.556150 17.319090 -1.609160 -3.607628 -10.334134 11.431993 -15.391189 12.578177 3.421782 -6.425630 -2.416656 -12.890935 -5.853141 2.481048 -0.785892 -1.136849 4.513098 3.770432 0.211760 -0.546640 -0.111700 18.223234 -10.506984 2.767462 -3.474652 -0.483316 0.271625 7.353194 -5.947006 4.432189 -0.958637 -5.022533 2.623794 -0.111520 1.644110 1.523130 -3.097520 -1.606300 -7.267811 3.492526 3.950248 4.626657 1.364913 3.141183 4.721810 2.242750 -0.662704 -9.128455 -1.448693 4.502516 25.303084 -6.338650 2.546960 -9.689740 -14.576071 -9.212055 2.492092 -7.707493 -5.510026 0.327719 11.548401 -26.294208 -3.316795 -4.649292 2.753557 1.037250 0.960080 0.124330 0.850730 11.015537 10.942659 6.051485 10.772468 6.922080 -4.306756 -15.290044 26.380276 -2.158809 1.432106 -1.405282 -0.495170 0.551090 0.374420 0.131360 
0.555100 17.320920 -1.603960 -3.721515 -10.449420 11.646870 -15.389221 12.571051 3.426566 -6.396346 -2.459089 -13.016460 -5.823873 2.452848 -0.915698 -1.138210 4.502934 3.773792 0.210300 -0.550600 -0.110280 18.223612 -10.513738 2.762074 -3.744511 -0.500049 0.622188 7.335279 -5.991129 4.470343 -0.968252 -5.065044 2.610572 -0.114750 1.642560 1.524630 -3.100399 -1.597342 -7.268454 3.555307 3.980429 4.545580 1.382078 3.159247 4.727218 2.257013 -0.674415 -9.201863 -1.460919 4.501902 25.258800 -6.368650 2.566790 -9.706810 -14.573598 -9.314716 2.550815 -7.715814 -5.487603 0.328429 11.664649 -26.055823 -3.333263 -4.650677 2.751534 1.038840 0.959140 0.125170 0.849170 10.990446 11.055382 6.128332 10.816061 6.795392 -4.347788 -15.381274 26.436619 -2.182309 1.431169 -1.405471 -0.494620 0.548840 0.375250 0.129970 
0.554430 17.323230 -1.598640 -3.854459 -10.575042 11.855368 -15.386653 12.565327 3.431462 -6.346951 -2.496646 -13.132770 -5.795696 2.425297 -1.054861 -1.138928 4.492127 3.776711 0.206720 -0.555500 -0.110800 18.223891 -10.521142 2.758566 -4.015634 -0.520468 1.008340 7.308833 -6.037354 4.501762 -0.978872 -5.109212 2.597115 -0.119290 1.640370 1.524700 -3.103643 -1.589055 -7.272825 3.655733 4.009754 4.486199 1.386255 3.181834 4.711553 2.281178 -0.695114 -9.280628 -1.494168 4.508733 25.271568 -6.409450 2.598500 -9.746310 -14.583537 -9.414211 2.609357 -7.723633 -5.453874 0.326682 11.796115 -25.796664 -3.349450 -4.651380 2.747669 1.041320 0.956970 0.126670 0.846690 10.957016 11.174203 6.210163 10.854111 6.665637 -4.391079 -15.458169 26.496827 -2.198791 1.430820 -1.403002 -0.494340 0.547330 0.377400 0.128770 
0.553850 17.325770 -1.593300 -3.993567 -10.702199 12.060455 -15.383829 12.560225 3.436477 -6.296259 -2.532621 -13.240475 -5.753717 2.395916 -1.195770 -1.138502 4.480767 3.779717 0.202420 -0.560630 -0.111960 18.223965 -10.529167 2.755858 -4.301526 -0.540324 1.415196 7.289689 -6.087689 4.535058 -0.990459 -5.155794 2.582291 -0.124190 1.638050 1.525340 -3.106852 -1.580603 -7.279008 3.767940 4.036490 4.435998 1.387410 3.203646 4.679380 2.308142 -0.717106 -9.357643 -1.533000 4.524985 25.323732 -6.436480 2.634740 -9.787480 -14.596214 -9.500257 2.666575 -7.741904 -5.406196 0.321829 11.949700 -25.543356 -3.368903 -4.651482 2.743312 1.044170 0.954340 0.129520 0.844420 10.920440 11.283362 6.286154 10.891735 6.557198 -4.429247 -15.522894 26.535571 -2.209097 1.432282 -1.399521 -0.493850 0.545660 0.379240 0.128470 
0.553410 17.328560 -1.588190 -4.137211 -10.830925 12.261806 -15.380757 12.556033 3.441572 -6.241676 -2.569426 -13.349734 -5.706930 2.367611 -1.321863 -1.137221 4.468061 3.782988 0.198470 -0.565960 -0.112570 18.223638 -10.537912 2.754439 -4.600102 -0.558738 1.839844 7.274175 -6.140211 4.563937 -1.003018 -5.203907 2.566807 -0.130050 1.634900 1.525890 -3.109615 -1.572032 -7.287574 3.888565 4.062131 4.398790 1.386567 3.226591 4.628205 2.339579 -0.739925 -9.439001 -1.576370 4.543655 25.413498 -6.450330 2.670950 -9.821350 -14.619593 -9.582724 2.726074 -7.766540 -5.326747 0.309323 12.135689 -25.319125 -3.395303 -4.649973 2.740223 1.047510 0.950570 0.132740 0.842070 10.885503 11.394361 6.363961 10.925253 6.454644 -4.465850 -15.588267 26.550949 -2.216397 1.434995 -1.396000 -0.492670 0.543170 0.380770 0.128120 
0.552930 17.331500 -1.582890 -4.285252 -10.970857 12.458522 -15.377606 12.552213 3.446630 -6.177064 -2.602906 -13.447484 -5.661318 2.339294 -1.455281 -1.134752 4.456251 3.785950 0.194260 -0.571810 -0.114060 18.223060 -10.546938 2.753915 -4.904531 -0.575579 2.281553 7.250784 -6.193560 4.585923 -1.016507 -5.253621 2.551345 -0.137010 1.631730 1.527300 -3.111937 -1.563070 -7.297737 4.016742 4.091876 4.363273 1.384978 3.254321 4.565236 2.376073 -0.764578 -9.523266 -1.626705 4.561965 25.543068 -6.469920 2.707620 -9.847580 -14.651093 -9.660690 2.786385 -7.801907 -5.231947 0.292011 12.366016 -25.092987 -3.430094 -4.648428 2.737598 1.051190 0.946720 0.136320 0.840090 10.848893 11.506022 6.443821 10.958110 6.354510 -4.500255 -15.637216 26.557494 -2.217111 1.437701 -1.392129 -0.490610 0.540050 0.382670 0.128060 
0.552300 17.334790 -1.577960 -4.437793 -11.125923 12.653503 -15.374461 12.548507 3.452455 -6.105832 -2.634946 -13.537334 -5.616575 2.309907 -1.605686 -1.131294 4.445050 3.788674 0.189930 -0.578480 -0.114830 18.222118 -10.556343 2.753868 -5.211487 -0.589104 2.723639 7.216078 -6.245212 4.605791 -1.029872 -5.302471 2.536464 -0.144800 1.627820 1.528790 -3.113475 -1.553274 -7.310014 4.147790 4.128537 4.336457 1.379475 3.291088 4.487128 2.419346 -0.789020 -9.611533 -1.679641 4.575173 25.706535 -6.502930 2.748370 -9.861180 -14.696441 -9.737564 2.845090 -7.828321 -5.114232 0.270577 12.582609 -24.908579 -3.462042 -4.646140 2.735359 1.055180 0.942490 0.140200 0.837780 10.812688 11.622084 6.529712 10.990464 6.246022 -4.532795 -15.667062 26.564318 -2.211513 1.440902 -1.387911 -0.488290 0.536240 0.384290 0.127530 
0.551580 17.338070 -1.573160 -4.594900 -11.295894 12.850268 -15.370999 12.544167 3.457794 -6.024751 -2.666084 -13.625590 -5.577755 2.280988 -1.758304 -1.129243 4.434768 3.791147 0.187150 -0.583640 -0.114120 18.221511 -10.565388 2.754361 -5.523885 -0.598961 3.164461 7.179197 -6.294529 4.610642 -1.043757 -5.350716 2.521943 -0.151430 1.623590 1.529520 -3.115962 -1.542572 -7.322151 4.284035 4.167665 4.310675 1.375897 3.331323 4.399426 2.457659 -0.821877 -9.685284 -1.746727 4.600556 25.874188 -6.528040 2.790730 -9.913270 -14.730781 -9.784293 2.891669 -7.861563 -4.997903 0.255647 12.748587 -24.760459 -3.485311 -4.642918 2.732371 1.060400 0.937690 0.144380 0.835700 10.774682 11.716424 6.597957 11.024396 6.179110 -4.560569 -15.713252 26.550816 -2.208392 1.443901 -1.383027 -0.486690 0.533730 0.385300 0.126450 
0.550860 17.341220 -1.568510 -4.751919 -11.480106 13.051079 -15.367664 12.538898 3.463232 -5.941676 -2.696635 -13.712313 -5.544057 2.250992 -1.924123 -1.127849 4.426918 3.793436 0.183900 -0.589450 -0.114420 18.220898 -10.573935 2.754233 -5.849784 -0.602162 3.592080 7.145945 -6.343663 4.611075 -1.057145 -5.399304 2.507579 -0.157490 1.620560 1.530860 -3.118372 -1.531281 -7.333492 4.414947 4.214728 4.276264 1.382287 3.377693 4.316016 2.493208 -0.861010 -9.756006 -1.823965 4.633135 26.038957 -6.558940 2.833850 -9.953820 -14.750961 -9.816791 2.936636 -7.923411 -4.892463 0.242154 12.970870 -24.573189 -3.518979 -4.641184 2.727921 1.065940 0.934040 0.148280 0.834220 10.729309 11.803361 6.661789 11.057752 6.116086 -4.589122 -15.760760 26.548592 -2.205989 1.445722 -1.378299 -0.486010 0.531810 0.386600 0.125350 
0.550240 17.344130 -1.563950 -4.913154 -11.668833 13.256227 -15.363910 12.534235 3.468669 -5.850962 -2.726898 -13.808583 -5.519051 2.223455 -2.083106 -1.125473 4.418149 3.796284 0.180070 -0.595220 -0.115170 18.220439 -10.582357 2.754505 -6.173511 -0.602660 4.008683 7.109849 -6.390435 4.609529 -1.069997 -5.445503 2.494615 -0.164030 1.617660 1.530630 -3.121527 -1.521100 -7.345531 4.556331 4.262849 4.244402 1.384923 3.428003 4.230070 2.524352 -0.911331 -9.833125 -1.921929 4.669441 26.207459 -6.571560 2.871750 -9.997950 -14.753375 -9.847748 2.984605 -7.999016 -4.786477 0.225669 13.203944 -24.394395 -3.553722 -4.638588 2.722576 1.071040 0.929730 0.151880 0.832650 10.675096 11.895918 6.732833 11.098204 6.025228 -4.623916 -15.810723 26.577395 -2.205122 1.447700 -1.372690 -0.485440 0.531010 0.387890 0.124710 
